<svg width="1440" height="966" viewBox="0 0 1440 966" fill="none" xmlns="http://www.w3.org/2000/svg">
<g id="Testimonial bg">
<path id="Cloud" fill-rule="evenodd" clip-rule="evenodd" d="M0 86.2707C0 86.2707 211 -59.6804 441 41.2857C671 142.252 978 208.23 1141 138.753C1304 69.2764 1440 138.753 1440 138.753V966H0V86.2707Z" fill="#F5F7FD"/>
<path id="Intersect" fill-rule="evenodd" clip-rule="evenodd" d="M0 647V630.703C0.508112 632.051 0.751724 632.85 0.751724 632.85C0.751724 632.85 7.76781 623.753 24.3057 623.753C40.8437 623.753 47.3586 632.85 47.3586 632.85C47.3586 632.85 99.9793 622.742 109 647H100.982H0Z" fill="#E8ECF7"/>
<path id="Intersect_2" fill-rule="evenodd" clip-rule="evenodd" d="M1440 648.104V670H1243.52H1236C1236 655.5 1260.55 658 1260.55 658C1260.55 658 1263.56 640 1276.58 638C1289.61 636 1304.64 650.5 1304.64 650.5C1304.64 650.5 1300.63 598 1352.74 598C1404.84 598 1416.37 655 1416.37 655C1425.37 651.137 1433.2 648.995 1440 648.104Z" fill="#E8ECF7"/>
<path id="Cloud_2" fill-rule="evenodd" clip-rule="evenodd" d="M154.515 827H393C393 827 380.976 789 327.367 812C327.367 812 315.843 755 263.737 755C211.631 755 215.64 807.5 215.64 807.5C215.64 807.5 200.609 793 187.582 795C174.556 797 171.55 815 171.55 815C171.55 815 147 812.5 147 827H154.515Z" fill="#E8ECF7"/>
<path id="Cloud_3" fill-rule="evenodd" clip-rule="evenodd" d="M1214.98 779H1005C1005 779 1016.53 746.656 1043.59 764.849C1043.59 764.849 1053.61 732 1079.17 732C1104.73 732 1114.75 764.849 1114.75 764.849C1114.75 764.849 1121.77 755.753 1138.31 755.753C1154.84 755.753 1161.36 764.849 1161.36 764.849C1161.36 764.849 1213.98 754.742 1223 779H1214.98Z" fill="#E8ECF7"/>
</g>
</svg>
