<svg width="1151" height="299" viewBox="0 0 1151 299" fill="none" xmlns="http://www.w3.org/2000/svg">
<path d="M230.738 172.928C296.429 154.639 325.226 100.111 351.658 59.469C378.09 18.8271 427.824 -10.5204 473.706 3.58631C519.588 17.693 556.381 51.0018 549.07 100.111C538.786 169.182 483.267 115.352 473.706 193.249C464.144 271.146 377.532 276.226 325.226 249.131C272.921 222.037 187.302 312.674 159.31 276.226C138.501 249.132 162.058 192.048 230.738 172.928Z" fill="#F5F7FD"/>
<path fill-rule="evenodd" clip-rule="evenodd" d="M775.349 86.0715C757.106 86.0715 742.318 71.2809 742.318 53.0357C742.318 34.7906 757.106 20 775.349 20C793.591 20 808.379 34.7906 808.379 53.0357C808.379 71.2809 793.591 86.0715 775.349 86.0715ZM801.969 242C731.108 242 679.807 202.109 702.389 145.828C715.648 112.782 740.405 113.971 772.929 115.533C795.798 116.632 822.507 117.915 851.76 107.611C922.615 82.6528 959 102.355 959 145.828C959 189.3 872.831 242 801.969 242Z" fill="#F5F7FD"/>
<path fill-rule="evenodd" clip-rule="evenodd" d="M55.4167 150C86.0224 150 190 122.742 190 89.1181C154.525 89.118 135.361 71.9897 117.324 55.868C100.081 40.4563 83.8668 25.9646 55.4167 28.236C24.8109 28.236 0 55.4938 0 89.118C0 122.742 24.8109 150 55.4167 150ZM161.593 60.7684C169.052 60.7684 175.098 55.3584 175.098 48.6849C175.098 42.0114 169.052 36.6015 161.593 36.6015C154.135 36.6015 148.088 42.0114 148.088 48.6849C148.088 55.3584 154.135 60.7684 161.593 60.7684Z" fill="#F5F7FD"/>
<path d="M1150.96 298C1151.01 296.618 1151.01 295.194 1150.96 293.737V7.40112C1150.96 70.9329 1143.32 42.6965 1052.42 106.228C961.518 169.76 992.407 220.056 1014.17 229.468C1042.42 241.682 1079.85 225.964 1112.79 237.704C1140.48 247.571 1150.31 273.787 1150.96 293.737V298Z" fill="#F5F7FD"/>
</svg>
