<svg width="1720" height="902" viewBox="0 0 1720 902" fill="none" xmlns="http://www.w3.org/2000/svg">
<path d="M1719.9 23C1720.03 26.9735 1720.04 31.0686 1719.9 35.2599V858.716C1719.9 676.009 1697.96 757.212 1437.19 574.505C1176.42 391.798 1265.03 247.154 1327.48 220.087C1408.52 184.96 1515.88 230.163 1610.38 196.403C1689.81 168.025 1718.02 92.6313 1719.9 35.2599V23Z" fill="#1F2937"/>
<path d="M1265.19 741.044C1199.37 855.061 1124.65 739.492 993.786 663.94C862.926 588.388 725.481 581.463 791.308 467.446C857.136 353.429 1016.58 322.247 1147.44 397.799C1278.3 473.351 1331.02 627.027 1265.19 741.044Z" fill="#1F2937"/>
</svg>
