<?xml version="1.0" encoding="utf-8"?>
<!-- Generator: Adobe Illustrator 24.1.3, SVG Export Plug-In . SVG Version: 6.00 Build 0)  -->
<svg version="1.1" id="Layer_1" xmlns="http://www.w3.org/2000/svg" xmlns:xlink="http://www.w3.org/1999/xlink" x="0px" y="0px"
	 viewBox="0 0 1361 384" style="enable-background:new 0 0 1361 384;" xml:space="preserve">
<style type="text/css">
	.st0{fill:#F5F7FD;}
</style>
<path class="st0" d="M101.9,333.5C49.4,314,10.8,359-2,384V109c4.3,47.8,29.5,41.5,44.2,60c16.8,21.1,6.9,32.2,0,71.2
	c-8.9,50.1,93.7,8.6,114.8,42.9C171.7,307,167.6,358,101.9,333.5z"/>
<path class="st0" d="M602.4,24.7c-53.5-48-148.2-13.5-175.7,0c-25,12.3-73.7,49.4-78,83.5c-4.5,35.5-4.5,101.5,62.7,126.5
	c87.5,32.5,161.5-10.5,237-43s338.5,75.5,402,43c63.5-32.5,65.5-156.5-44.5-178.5c-110-22-116.5,23.5-192,37.5
	C738.4,107.7,655.9,72.7,602.4,24.7z"/>
<path class="st0" d="M1359.1,252.6c8.1,19-10.9,36.4-37.7,36.4c-26.8,0-59.4-19.9-59.4-36.4c0-16.4,13.8-23.9,40.6-14.5
	C1329.4,247.6,1347,224.3,1359.1,252.6z"/>
<circle class="st0" cx="1331.5" cy="217.5" r="12.5"/>
</svg>
