<svg width="727" height="758" viewBox="0 0 727 758" fill="none" xmlns="http://www.w3.org/2000/svg">
<path d="M85.5 151C5.9 143.8 -18.6667 47.3333 -21 0V757C95.5 766 125 627 112.5 564C100 501 152 395 317.5 437C483 479 495.5 268.5 423.5 226C351.5 183.5 393 117.5 302.5 93.5C212 69.5 185 160 85.5 151Z" fill="rgba(139,115,85,0.1)"/>
<path d="M419.72 563.039C482.893 545.422 523.567 482.834 536.007 453.743C557.101 428.458 610.107 382.293 653.376 399.911C707.463 421.933 732.884 445.587 725.853 492.894C715.963 559.431 662.571 507.576 653.376 582.615C644.182 657.654 560.888 662.548 510.588 636.447C460.287 610.347 377.949 697.659 351.03 662.548C331.019 636.447 353.673 581.459 419.72 563.039Z" fill="rgba(139,115,85,0.1)"/>
</svg>
