<svg xmlns="http://www.w3.org/2000/svg" xml:space="preserve" id="down-arrow" x="0" y="0" style="enable-background:new 0 0 453.54 453.54" version="1.1" viewBox="0 0 453.54 453.54">
  <g>
    <g>
      <path d="M230.264,0.077c-41.32-1.531-80.663,19.435-103.204,53.999c-21.722,33.307-24.534,76.442-7.946,112.452
			c15.516,33.683,47.057,57.499,81.318,69.888c35.641,12.888,81.953,15.646,116.104-3.152
			c18.645-10.263,35.329-32.231,25.804-54.131c-8.138-18.711-28.395-29.869-47.914-32.099
			c-40.891-4.672-79.554,20.324-95.169,57.511c-15.68,37.342-11.927,87.687,22.868,113.132
			c24.831,18.158,74.406,34.986,98.202,6.629c5.785-6.894,9.43-16.536,4.343-24.893c-4.641-7.624-14.171-9.875-22.497-8.941
			c-16.621,1.865-28.964,14.992-34.062,30.23c-10.254,30.648,1.249,68.077,12.293,96.966c2.232,5.838,4.64,11.617,7.249,17.296
			c4.582,9.973,19.305,1.308,14.744-8.618c-9.947-21.65-17.808-45.78-20.096-69.559c-1.118-11.619-1.414-24.68,3.864-35.428
			c2.145-4.369,5.229-8.113,9.354-10.736c2.92-1.857,6.437-3.358,9.959-3.372c4.433-0.018,4.878,0.027,3.75,3.413
			c-4.29,12.879-26.014,12.035-36.049,10.29c-14.287-2.485-28.251-8.231-40.202-16.431c-28.309-19.425-30.325-60.426-19.405-90.032
			c11.215-30.406,39.387-50.782,72.063-50.896c15.33-0.054,32.781,6.29,40.311,20.712c10.326,19.776-16.871,35.358-32.002,39.885
			c-55.538,16.614-126.643-6.582-155.888-58.084c-17.401-30.644-16.67-69.309,1.324-99.526
			c18.953-31.829,53.953-50.795,90.885-49.427C241.253,17.559,241.236,0.483,230.264,0.077L230.264,0.077z"></path>
    </g>
    <g>
      <path d="M299.868,414.856c-2.245,9.329-4.176,18.722-6.621,28.003c4.181-1.701,8.361-3.402,12.542-5.102
			c-8.427-4.315-16.87-8.595-25.332-12.84c-9.796-4.915-18.452,9.81-8.618,14.744c8.462,4.245,16.905,8.525,25.332,12.84
			c4.815,2.465,11.074,0.47,12.542-5.102c2.444-9.281,4.376-18.674,6.621-28.003C318.904,408.716,302.443,404.16,299.868,414.856
			L299.868,414.856z"></path>
    </g>
  </g>
</svg>
